<?xml version="1.0" encoding="UTF-8"?>
<svg id="Calque_1" data-name="Calque 1" xmlns="http://www.w3.org/2000/svg" xmlns:xlink="http://www.w3.org/1999/xlink" viewBox="0 0 79.76 86.52">
  <defs>
    <style>
      .cls-1 {
        fill: url(#Dégradé_sans_nom_117);
      }
    </style>
    <linearGradient id="Dégradé_sans_nom_117" data-name="Dégradé sans nom 117" x1="-.1" y1="43.29" x2="79.68" y2="43.29" gradientTransform="translate(-.01 .01) rotate(-.09)" gradientUnits="userSpaceOnUse">
      <stop offset="0" stop-color="#ec4899" stop-opacity="0"/>
      <stop offset=".6" stop-color="#7c6fcd"/>
      <stop offset="1" stop-color="#4a9edb"/>
    </linearGradient>
  </defs>
  <path class="cls-1" d="M79.75,61.48c-.18-5.98-2.39-11.37-6.42-15.6l-3.41-2.87c10.07-7.29,11.81-21.63,5.45-31.86-3.36-5.41-8.69-9.1-14.87-10.48C58.09.13,55.92,0,53.41,0L0,.1l.07,29.96c.01,5.46,2.97,10.14,7.47,13.25-3.22,2.14-5.45,5.07-6.72,8.59-.54,1.57-.69,3.07-.83,4.78l.03,29.84,56.2-.2c12.8-.04,23.92-11.44,23.53-24.85ZM65.65,70.75c-2.44,2.75-5.71,4.5-9.42,4.51l-45.29.12v-18.2c0-2.56,1.07-4.65,2.97-6.27,2.16-1.46,4.65-2.15,7.31-2.14l14.81-.04-.03-10.99-15.33.03c-2.52-.05-4.83-.58-6.87-2.04-1.79-1.45-2.83-3.6-2.84-6.02l-.06-18.49,44.65-.04c5.4,0,9.95,3.47,11.75,8.42,1.48,4.05,1.04,8.66-1.31,12.26-2.43,3.7-6.39,5.6-10.75,5.83l-12.1.03v10.98s12.42,0,12.42,0c3.63-.02,7.19,1.27,9.7,3.87,4.49,4.65,4.87,13.12.39,18.17Z"/>
</svg>