<?xml version="1.0" encoding="UTF-8"?>
<svg id="Calque_1" data-name="Calque 1" xmlns="http://www.w3.org/2000/svg" xmlns:xlink="http://www.w3.org/1999/xlink" viewBox="0 0 795.27 225.7">
  <defs>
    <style>
      .cls-1 {
        fill: url(#Dégradé_sans_nom_116);
      }
    </style>
    <linearGradient id="Dégradé_sans_nom_116" data-name="Dégradé sans nom 116" x1="0" y1="107.29" x2="198.04" y2="107.29" gradientUnits="userSpaceOnUse">
      <stop offset="0" stop-color="#ec4899" stop-opacity="0"/>
      <stop offset=".6" stop-color="#7c6fcd"/>
      <stop offset="1" stop-color="#4a9edb"/>
    </linearGradient>
  </defs>
  <path class="cls-1" d="M198.02,152.72c-.41-14.84-5.88-28.24-15.87-38.75l-8.46-7.13c25.03-18.05,29.39-53.66,13.66-79.08-8.32-13.44-21.55-22.63-36.88-26.07C144.49.35,139.1,0,132.86,0L.29.03l.06,74.38c.01,13.55,7.32,25.18,18.5,32.92-8,5.31-13.55,12.57-16.73,21.3-1.34,3.89-1.73,7.63-2.07,11.87l-.05,74.08,139.51-.27c31.76-.06,59.43-28.3,58.51-61.59ZM162.97,175.69c-6.08,6.83-14.19,11.15-23.41,11.16l-112.43.12.09-45.18c.01-6.35,2.66-11.54,7.37-15.56,5.38-3.62,11.54-5.32,18.15-5.29l36.77-.04-.04-27.28-38.05.02c-6.25-.14-12-1.45-17.05-5.09-4.43-3.6-7.01-8.95-7.02-14.95l-.08-45.9,110.85.08c13.41,0,24.68,8.65,29.15,20.96,3.65,10.06,2.55,21.51-3.31,30.42-6.04,9.18-15.89,13.88-26.71,14.44l-30.03.02-.03,27.26,30.81.06c9.01-.03,17.84,3.19,24.05,9.64,11.13,11.55,12.04,32.59.9,45.1Z"/>
  <g>
    <path d="M266.28,39.89v53.96c6.69-11.36,17.85-18.05,34.08-18.05,25.36,0,47.06,21.1,47.06,56.8s-21.71,57-47.06,57c-16.23,0-27.38-6.69-34.08-18.05v15.42h-21.1V39.89h21.1ZM295.49,171.95c17.65,0,29.41-14.4,29.41-39.35s-11.77-39.15-29.41-39.15c-16.23,0-30.02,12.17-30.02,39.15s13.79,39.35,30.02,39.35Z"/>
    <path d="M427.54,171.54c-6.29,11.16-16.84,18.05-33.27,18.05-25.76,0-35.7-15.82-35.7-42.4v-69.37h21.1v63.69c0,15.62,2.64,30.22,21.7,30.22,17.85,0,26.37-12.98,26.37-34.69v-59.23h21.1v109.13h-21.3v-15.42Z"/>
    <path d="M542.55,39.89h21.1v147.07h-21.1v-15.42c-6.69,11.36-17.85,18.05-34.08,18.05-25.36,0-47.06-21.3-47.06-57s21.71-56.8,47.06-56.8c16.23,0,27.38,6.69,34.08,18.05v-53.96ZM513.34,93.44c-17.65,0-29.41,14.2-29.41,39.15s11.76,39.35,29.41,39.35c16.23,0,30.02-12.37,30.02-39.35s-13.79-39.15-30.02-39.15Z"/>
    <path d="M656.55,77.83h21.1v96.35c0,20.08-4.26,30.83-11.77,38.34-8.52,8.72-21.3,13.18-38.14,13.18-24.95,0-42.19-10.14-45.64-33.47h21.71c2.23,9.94,8.32,15.82,24.34,15.82,9.94,0,17.24-2.64,21.91-7.91,4.26-4.67,6.49-10.14,6.49-21.5v-11.56c-6.69,11.36-17.45,18.05-33.67,18.05-25.36,0-46.45-19.88-46.45-54.77s21.1-54.57,46.45-54.57c16.23,0,26.98,6.69,33.67,18.05v-16.02ZM627.75,93.24c-17.65,0-28.8,13.39-28.8,37.12s11.16,37.53,28.8,37.53c16.23,0,29.62-11.56,29.62-37.53s-13.39-37.12-29.62-37.12Z"/>
    <path d="M772.38,154.91h21.3c-4.87,18.05-21.5,34.69-49.09,34.69-35.09,0-54.36-25.56-54.36-57.41,0-33.88,22.72-56.39,53.76-56.39,33.67,0,53.35,27.59,51.12,63.09h-83.17c2.23,20.28,14.61,32.66,31.85,32.66,15.42,0,23.94-6.29,28.6-16.63ZM712.34,122.25h60.85c-.61-16.02-12.17-29.21-29.41-29.21s-28.4,8.32-31.44,29.21Z"/>
  </g>
</svg>